Coordinates
version=1
nRows=12
nColumns=23
inDegrees=yes

Units are S.I. units (second, meters, Newtons, ...)
If the header above contains a line with 'inDegrees', this indicates whether rotational values are in degrees (yes) or radians (no).

endheader
time	pelvis_tilt	pelvis_list	pelvis_rotation	pelvis_tx	pelvis_ty	pelvis_tz	hip_flexion_r	hip_adduction_r	hip_rotation_r	knee_angle_r	knee_angle_r_beta	ankle_angle_r	subtalar_angle_r	mtp_angle_r	hip_flexion_l	hip_adduction_l	hip_rotation_l	knee_angle_l	knee_angle_l_beta	ankle_angle_l	subtalar_angle_l	mtp_angle_l
      0.00000000	    -13.27037082	     -0.28504178	      5.16898297	      2.21682537	      1.01281185	      1.02741643	     -5.95880387	      0.65592781	     -9.98407307	     57.47199226	      1.00307549	    -10.52196364	    -14.62466457	      0.00000000	     37.45291742	      3.87176148	     -4.79155648	     14.59863811	      0.25479430	     11.05186441	      4.96009278	      0.00000000
      0.00666667	    -12.86953159	     -0.27567923	      5.50830990	      2.21502126	      1.00861258	      1.02708934	     -4.37054787	      0.62216531	     -9.63813574	     62.60197481	      1.09261058	    -10.74298027	    -14.54927070	      0.00000000	     37.71172696	      3.92791354	     -4.52116503	     17.79369326	      0.31055853	      9.06805133	      3.45980620	      0.00000000
      0.01333333	    -12.29217033	     -0.16845538	      5.78399239	      2.21329527	      1.00422943	      1.02689181	     -3.11023315	      0.53283837	     -9.28940297	     67.49250572	      1.17796645	    -10.87374022	    -14.29970782	      0.00000000	     37.74627168	      4.01430019	     -4.30861896	     20.98272848	      0.36621770	      7.37273035	      1.99823783	      0.00000000
      0.02000000	    -12.22056629	     -0.23903272	      6.15287371	      2.21118708	      0.99868730	      1.02660304	     -1.32140907	      0.57157695	     -9.12239294	     72.27246527	      1.26139248	    -10.70080489	    -13.68604391	      0.00000000	     38.44771613	      4.07487214	     -3.78434598	     24.40031499	      0.42586584	      6.05280046	      0.40716110	      0.00000000
      0.02666667	    -11.73508512	     -0.12970023	      6.47523508	      2.20918011	      0.99359989	      1.02640229	     -0.06522535	      0.46736886	     -8.95163225	     76.75312295	      1.33959471	    -10.42027417	    -13.06626890	      0.00000000	     38.60464578	      4.21096603	     -3.42441854	     27.74727006	      0.48428122	      5.37230699	     -0.95219563	      0.00000000
      0.03333333	    -11.47236479	     -0.03148097	      6.85042345	      2.20704054	      0.98805297	      1.02608625	      1.41923965	      0.25904878	     -8.96170639	     81.05880782	      1.41474308	     -9.85774072	    -12.26184226	      0.00000000	     38.99333280	      4.39590779	     -2.99886761	     31.14990558	      0.54366841	      5.33984317	     -2.19502815	      0.00000000
      0.04000000	    -11.17896190	      0.14829813	      7.22584284	      2.20475779	      0.98261110	      1.02572355	      2.89001464	     -0.08342602	     -9.00021566	     85.15674940	      1.48626566	     -9.12466431	    -11.43999840	      0.00000000	     39.24948747	      4.66162941	     -2.58000106	     34.46167813	      0.60146975	      5.95867291	     -3.19494048	      0.00000000
      0.04666667	    -10.88190714	      0.38846217	      7.57597939	      2.20238272	      0.97738637	      1.02528768	      4.39795641	     -0.57533445	     -9.05343997	     89.04163513	      1.55406970	     -8.23304842	    -10.61786649	      0.00000000	     39.35939182	      4.99523486	     -2.14330182	     37.60540560	      0.65633814	      7.18962431	     -4.02858875	      0.00000000
      0.05333333	    -10.79820006	      0.66192819	      7.89017161	      2.19987929	      0.97221552	      1.02481633	      6.21494268	     -1.20764471	     -9.07703257	     92.74194864	      1.61865236	     -7.22186985	     -9.72587245	      0.00000000	     39.52892594	      5.36671193	     -1.76549303	     40.51333503	      0.70709109	      8.76399105	     -4.53096170	      0.00000000
      0.06000000	    -10.73347960	      0.98282884	      8.15427007	      2.19740033	      0.96752283	      1.02428538	      8.11974432	     -1.95646353	     -9.02588664	     96.18087522	      1.67867295	     -6.17700298	     -8.85167711	      0.00000000	     39.47626667	      5.79352877	     -1.37497961	     43.07116864	      0.75173371	     10.67068618	     -4.91301973	      0.00000000
      0.06666667	    -10.82629871	      1.32002389	      8.31108106	      2.19489822	      0.96324007	      1.02378369	     10.30664628	     -2.79548051	     -8.83553707	     99.36889980	      1.73431448	     -5.13587741	     -8.01765816	      0.00000000	     39.35028748	      6.17282803	     -1.13207202	     45.25808321	      0.78990257	     12.69292004	     -5.02483050	      0.00000000
      0.07333333	    -10.98007849	      1.67391968	      8.39477914	      2.19249897	      0.95959562	      1.02325280	     12.65219834	     -3.69373850	     -8.52648380	    102.24865995	      1.78457577	     -4.14796710	     -7.16102521	      0.00000000	     39.01466320	      6.55099183	     -0.92239476	     47.01831187	      0.82062435	     14.76793406	     -5.02394774	      0.00000000
